<svg xmlns="http://www.w3.org/2000/svg" aria-hidden="true" style="position:absolute;width:0;height:0;overflow:hidden">
  <defs>
    <symbol id="icon-play" viewBox="0 0 32 32">
      <path d="M28 11.843c3.2 1.848 3.2 6.466 0 8.314L8.8 31.242c-3.2 1.848-7.2-.462-7.2-4.157V4.915c0-3.695 4-6.004 7.2-4.157L28 11.843z"/>
    </symbol>
    <symbol id="icon-cube" viewBox="0 0 28 32">
      <path d="M13.811.028c-.132.03-.317.086-.411.125s-2.947 1.633-6.34 3.542C2.73 6.132.806 7.25.604 7.448a2.55 2.55 0 0 0-.446.631L0 8.429v14.599l.185.377c.102.207.302.491.446.631.165.161 2.544 1.538 6.485 3.756 4.753 2.674 6.329 3.529 6.666 3.617.782.205.635.275 7.52-3.597 3.717-2.09 6.3-3.584 6.474-3.744.159-.146.375-.44.48-.653l.19-.387V8.429l-.162-.357a2.464 2.464 0 0 0-.48-.653c-.218-.203-2.254-1.382-6.487-3.759C17.924 1.755 15.068.163 14.97.121c-.251-.107-.875-.156-1.159-.092zm5.813 5.189c2.929 1.645 5.361 3.025 5.405 3.067.06.057-1.266.841-5.232 3.092-2.922 1.659-5.357 3.026-5.412 3.038-.117.027-11.002-6.026-10.976-6.103.024-.072 10.687-6.076 10.8-6.082.05-.002 2.486 1.342 5.415 2.987zM8.156 13.533c2.79 1.554 5.077 2.831 5.082 2.836.027.027-.108 12.194-.135 12.221-.017.017-2.487-1.349-5.488-3.037l-5.456-3.069V10.183l.463.262c.255.144 2.745 1.533 5.535 3.088zm18.129 2.834v6.121l-5.455 3.069c-3 1.688-5.466 3.058-5.479 3.044-.042-.042.088-12.194.131-12.236.063-.063 10.694-6.109 10.752-6.115.028-.003.051 2.75.051 6.117z"/>
    </symbol>
    <symbol id="icon-globe" viewBox="0 0 31 32">
      <path d="M13.912.081C7.733.724 2.437 5.105.661 11.044c-2.801 9.369 3.615 18.943 13.352 19.922 5.101.513 10.246-1.626 13.506-5.617a15.512 15.512 0 0 0 0-19.656c-3.277-4.01-8.46-6.148-13.608-5.612zm2.361 2.909c1.221.623 2.443 2.766 3.169 5.554.139.534.253.979.253.989s-1.881.019-4.18.019h-4.181l.046-.205c.425-1.899 1.166-3.791 1.922-4.907.999-1.474 1.983-1.954 2.971-1.45zm-5.322.711c-.715 1.216-1.255 2.623-1.742 4.544l-.322 1.269-5.08.039.243-.43a13.306 13.306 0 0 1 5.624-5.35c.521-.263 1.439-.661 1.64-.711a12.88 12.88 0 0 1-.364.639zm10.166-.063c1.995.906 4.048 2.688 5.35 4.645.345.518.691 1.133.691 1.228 0 .022-1.142.04-2.537.04-2.395 0-2.537-.008-2.537-.135 0-.074-.115-.603-.256-1.175-.433-1.758-1.045-3.35-1.744-4.537l-.376-.639.461.176c.253.097.681.276.95.398zm-12.64 8.843c-.091.702-.091 5.38 0 6.082l.07.541H2.9l-.073-.191c-.324-.852-.523-3.338-.377-4.697.085-.788.325-2.054.417-2.204.027-.044 1.136-.072 2.862-.072h2.817l-.07.541zm11.625-.373c.076.347.19 2.399.19 3.428s-.102 2.823-.189 3.326l-.042.243h-9.095l-.037-.168c-.077-.348-.19-2.401-.189-3.428.001-1.051.112-3.072.187-3.4l.039-.168h9.099l.037.168zm8.157.242c.278 1.112.347 1.742.347 3.172s-.069 2.06-.347 3.172l-.093.373-5.681.039.071-.542c.092-.704.092-5.38 0-6.084l-.071-.542 5.681.039.093.373zM9.208 22.798c.486 1.917 1.027 3.329 1.739 4.538l.374.636-.496-.186c-2.768-1.04-5.27-3.206-6.775-5.866l-.243-.43 5.08.039.322 1.269zm10.46-1.176c-.02.072-.143.534-.272 1.026-.708 2.701-1.912 4.778-3.142 5.418a1.658 1.658 0 0 1-1.476 0c-1.239-.645-2.502-2.85-3.186-5.558a77.213 77.213 0 0 0-.228-.887c-.035-.123.198-.131 4.152-.131s4.187.007 4.152.131zm7.49-.09c0 .095-.346.71-.691 1.228-1.515 2.276-3.792 4.099-6.3 5.045l-.461.174.376-.639c.699-1.187 1.311-2.78 1.744-4.538.141-.573.256-1.101.256-1.175 0-.127.142-.135 2.537-.135 1.396 0 2.537.018 2.537.04z"/>
    </symbol>
    <symbol id="icon-graph" viewBox="0 0 33 32">
      <path d="M10.329.118c-.279.061-.816.262-1.191.448-1.667.823-2.785 2.635-2.785 4.513 0 2.849 2.459 5.206 5.284 5.065l.641-.032 1.06 2.37-.508.548c-1.281 1.384-1.725 3.397-1.12 5.08.116.323.218.625.225.671s-.888.888-1.99 1.872l-2.004 1.789-.617-.305c-3.787-1.87-8.085 1.475-7.209 5.61.307 1.448 1.348 2.794 2.665 3.444 1.532.756 3.072.758 4.599.005 2.203-1.086 3.327-3.827 2.506-6.112-.116-.323-.218-.626-.225-.672s.891-.889 1.997-1.873l2.011-1.79.613.305a4.975 4.975 0 0 0 3.3.423c.568-.12 1.391-.467 1.802-.76.156-.111.269-.143.332-.095.824.629 3.379 2.61 3.457 2.681.085.078.073.186-.067.603-.101.3-.188.802-.211 1.223-.187 3.329 2.853 5.928 6.131 5.242 2.279-.477 4.008-2.618 4.008-4.964 0-1.873-1.125-3.7-2.78-4.516-1.613-.796-3.31-.742-4.873.153-.331.189-.582.287-.635.247-.559-.423-3.37-2.603-3.449-2.674-.085-.078-.074-.186.066-.6.094-.277.19-.813.214-1.189l.044-.685 2.057-.679.123.186c.068.103.363.421.656.708 1.956 1.916 5.117 1.881 7.07-.077 2.004-2.01 2.004-5.153 0-7.163-1.991-1.997-5.151-1.995-7.151.005-.935.935-1.501 2.25-1.505 3.5l-.001.439-2.079.686-.123-.187c-.068-.102-.367-.425-.666-.718a4.986 4.986 0 0 0-3.689-1.397l-.641.032-1.06-2.37.508-.548c1.891-2.042 1.842-5.105-.112-7.066A5.055 5.055 0 0 0 10.329.115zm1.879 2.547c.606.196 1.113.626 1.441 1.222.263.479.284.565.283 1.191-.001.615-.025.719-.271 1.176-.3.557-.55.798-1.148 1.109-.346.18-.504.211-1.081.21-.551-.001-.748-.036-1.072-.193a2.589 2.589 0 0 1-1.45-2.118c-.144-1.774 1.598-3.145 3.299-2.596zm16.52 7.624c.606.196 1.113.626 1.441 1.222.263.479.284.565.283 1.191-.001.615-.025.719-.271 1.175-.301.558-.551.799-1.148 1.108-.336.174-.515.21-1.041.214-1.202.008-2.07-.607-2.45-1.737-.646-1.922 1.241-3.802 3.186-3.173zm-11.437 3.812c.641.207 1.128.63 1.448 1.257.252.494.278.606.274 1.188-.003.513-.042.716-.189 1.001-.309.597-.61.914-1.133 1.197-.458.247-.556.269-1.175.267-.813-.003-1.282-.195-1.801-.736-.438-.457-.673-.969-.722-1.573-.144-1.774 1.6-3.149 3.298-2.601zm11.437 8.896c.606.196 1.113.626 1.441 1.222.263.479.284.565.283 1.191-.001.615-.025.719-.271 1.175-.301.557-.55.798-1.148 1.109-.347.18-.504.211-1.081.21-.551-.001-.748-.036-1.072-.194-1.131-.548-1.727-1.885-1.353-3.031.449-1.374 1.861-2.116 3.201-1.683zM6.147 24.382c.481.229.943.692 1.219 1.224.176.338.208.504.21 1.075.002.618-.021.717-.268 1.176-.301.557-.55.798-1.148 1.109-.346.18-.504.211-1.081.21-.551-.001-.748-.036-1.072-.193-2.064-1.002-1.892-3.926.278-4.715.5-.182 1.348-.129 1.862.115z"/>
    </symbol>
    <symbol id="icon-slack" viewBox="0 0 32 32">
      <path d="M11.23.117c-.275.059-.793.252-1.152.429-2.292 1.132-3.334 4.04-2.275 6.353.107.234.195.439.195.455s-.805.03-1.789.03c-2.091.002-2.542.072-3.515.553-1.612.796-2.695 2.552-2.695 4.37 0 1.126.491 2.421 1.236 3.256l.39.437-.396.442c-1.711 1.913-1.612 4.881.225 6.717 1.442 1.442 3.643 1.861 5.445 1.037.234-.107.439-.195.455-.195s.03.805.03 1.789c.002 2.091.072 2.542.553 3.515.796 1.612 2.552 2.695 4.37 2.695 1.139 0 2.416-.483 3.251-1.23l.442-.396.442.396c1.913 1.711 4.881 1.612 6.717-.225 1.442-1.442 1.861-3.643 1.037-5.444-.107-.234-.195-.439-.195-.455s.805-.03 1.789-.03c2.091-.002 2.556-.074 3.517-.548C30.91 23.278 32 21.507 32 19.693c0-1.126-.491-2.421-1.236-3.256l-.39-.437.396-.442c1.711-1.913 1.612-4.881-.225-6.717-1.442-1.442-3.643-1.861-5.444-1.037-.234.107-.439.195-.455.195s-.03-.805-.03-1.789c-.002-2.091-.072-2.542-.553-3.515C23.263 1.074 21.521 0 19.693 0c-1.126 0-2.421.491-3.256 1.236l-.437.39-.442-.396C14.433.223 12.75-.209 11.23.117zm2.122 2.576c.479.232.95.704 1.19 1.192.178.361.19.469.213 1.946l.025 1.564-1.564-.025c-1.477-.024-1.585-.035-1.946-.213-1.37-.674-1.832-2.332-1.001-3.595a2.675 2.675 0 0 1 1.299-.998c.47-.154 1.327-.092 1.784.129zm7.093-.11c.587.19 1.079.606 1.396 1.184l.275.5v8.694l-.263.485c-.292.539-.533.772-1.114 1.076-.382.2-.436.207-1.951.233l-1.558.027v-5.12c0-4.523.015-5.163.125-5.489.444-1.307 1.802-2.006 3.089-1.59zm-7.386 7.386c.587.19 1.079.606 1.396 1.184l.275.5.026 1.56.026 1.56-10.516-.043-.385-.191c-1.998-.99-1.83-3.832.27-4.567.297-.104.921-.121 4.434-.125 3.559-.003 4.138.012 4.473.121zm15.064.11c.479.232.951.704 1.19 1.192.27.55.27 1.524 0 2.073-.24.488-.71.958-1.198 1.198-.361.178-.47.19-1.941.213l-1.558.025v-1.417c0-.975.033-1.525.105-1.765.221-.735.881-1.407 1.618-1.649.47-.154 1.327-.092 1.784.129zM7.37 18.789c-.024 1.471-.035 1.579-.213 1.941a2.79 2.79 0 0 1-1.199 1.198c-.315.155-.498.188-1.037.188s-.722-.033-1.037-.188c-1.371-.674-1.832-2.332-1.001-3.595.29-.44.815-.842 1.299-.993.207-.065.814-.101 1.764-.104l1.448-.005-.025 1.558zm7.382 3.693-.022 5.251-.263.485c-.293.54-.535.773-1.114 1.074-.336.174-.488.204-1.047.203-.534-.001-.725-.035-1.039-.187a2.748 2.748 0 0 1-1.194-1.191l-.191-.385-.022-4.193c-.019-3.692-.007-4.239.102-4.573a2.48 2.48 0 0 1 1.574-1.607c.265-.093.682-.122 1.791-.125l1.445-.004-.022 5.251zm13.079-5.127c.587.19 1.078.606 1.396 1.184.256.465.275.546.272 1.154-.002.554-.034.714-.207 1.047-.301.579-.534.821-1.074 1.114l-.485.263h-8.694l-.385-.191a2.776 2.776 0 0 1-1.194-1.194c-.18-.364-.191-.468-.215-1.943l-.025-1.558h5.113c4.496 0 5.16.015 5.498.124zm-7.101 7.489c.488.24.958.71 1.198 1.199.155.315.188.498.188 1.037 0 .771-.18 1.223-.69 1.733s-.962.691-1.733.691c-.538 0-.722-.033-1.037-.188a2.794 2.794 0 0 1-1.198-1.198c-.178-.361-.19-.469-.213-1.946l-.025-1.564 1.564.025c1.477.024 1.585.035 1.946.213z"/>
    </symbol>
    <symbol id="icon-team" viewBox="0 0 32 32">
      <path d="M25.756 21.872a9.399 9.399 0 0 0-2.7-1.887 6.236 6.236 0 0 0 2.319-4.859c0-3.463-2.887-6.303-6.35-6.25a6.253 6.253 0 0 0-6.156 6.25c0 1.962.906 3.712 2.319 4.859a9.399 9.399 0 0 0-2.7 1.887 9.313 9.313 0 0 0-2.737 6.372.253.253 0 0 0 .071.181.255.255 0 0 0 .179.076h1.75a.249.249 0 0 0 .25-.241 7.064 7.064 0 0 1 2.084-4.797 7.09 7.09 0 0 1 5.04-2.088c1.903 0 3.694.741 5.041 2.087a7.087 7.087 0 0 1 2.084 4.797.25.25 0 0 0 .25.241h1.75a.251.251 0 0 0 .25-.257 9.295 9.295 0 0 0-2.744-6.372zm-6.631-2.747a3.966 3.966 0 0 1-2.828-1.172 3.957 3.957 0 0 1-1.172-2.869 4.006 4.006 0 0 1 1.134-2.75 3.98 3.98 0 0 1 2.825-1.209 4.026 4.026 0 0 1 2.844 1.144 3.97 3.97 0 0 1 1.2 2.856 3.971 3.971 0 0 1-1.172 2.828 3.97 3.97 0 0 1-2.831 1.171zm-7.828-3.175a7.997 7.997 0 0 1 .09-2.278.25.25 0 0 0-.141-.275 3.952 3.952 0 0 1-1.153-.784 3.984 3.984 0 0 1-1.21-2.981 3.98 3.98 0 0 1 1.134-2.675 3.974 3.974 0 0 1 2.912-1.209 3.997 3.997 0 0 1 3.325 1.838.249.249 0 0 0 .291.1 7.759 7.759 0 0 1 1.728-.388.25.25 0 0 0 .197-.362 6.261 6.261 0 0 0-5.491-3.434C9.513 3.449 6.626 6.29 6.626 9.749c0 1.963.903 3.713 2.319 4.859a9.4 9.4 0 0 0-2.703 1.887 9.295 9.295 0 0 0-2.744 6.375.253.253 0 0 0 .071.181.255.255 0 0 0 .179.076h1.753a.249.249 0 0 0 .25-.241 7.064 7.064 0 0 1 2.084-4.797 7.061 7.061 0 0 1 3.272-1.866.25.25 0 0 0 .188-.272z"/>
    </symbol>
    <symbol id="icon-support" viewBox="0 0 32 32">
      <path d="M16 2.667C8.648 2.667 2.667 8.648 2.667 16v5.524C2.667 22.889 3.863 24 5.334 24h1.333a1.333 1.333 0 0 0 1.334-1.333V15.81a1.335 1.335 0 0 0-1.334-1.334H5.456C6.197 9.316 10.637 5.333 16 5.333s9.803 3.983 10.544 9.143h-1.211A1.33 1.33 0 0 0 24 15.81v8.191a2.67 2.67 0 0 1-2.667 2.667h-2.667v-1.333h-5.333v4h8a5.339 5.339 0 0 0 5.333-5.333c1.471 0 2.667-1.111 2.667-2.476v-5.524C29.333 8.65 23.352 2.669 16 2.669z"/>
    </symbol>
    <symbol id="icon-linkedin" viewBox="0 0 32 32">
      <path d="M18.433 31.315h-6.091V11.701h5.787v2.619c.061-.061.122-.061.122-.061 1.279-2.071 3.167-2.985 5.543-3.046 1.34-.061 2.68.122 3.898.731 1.584.731 2.497 2.071 2.985 3.716.426 1.34.548 2.68.548 4.02v11.513h-6.091v-10.05a13.3 13.3 0 0 0-.183-2.193c-.365-2.01-1.705-2.68-3.533-2.436-1.706.183-2.619 1.218-2.924 3.046-.122.67-.122 1.34-.122 2.01v9.198c.061.244.061.365.061.548zM2.408 11.761h6.03v19.553h-6.03V11.761zM8.93 5.487c0 1.949-1.584 3.533-3.472 3.594-1.949 0-3.533-1.584-3.533-3.533s1.584-3.533 3.533-3.533C7.346 1.954 8.93 3.538 8.93 5.487z"/>
    </symbol>
    <symbol id="icon-email" viewBox="0 0 32 32">
      <path d="M26.664 5.333H5.331A2.663 2.663 0 0 0 2.678 8l-.013 16c0 1.467 1.2 2.667 2.667 2.667h21.333c1.467 0 2.667-1.2 2.667-2.667V8c0-1.467-1.2-2.667-2.667-2.667zm0 5.333-10.667 6.667L5.33 10.666V7.999l10.667 6.667 10.667-6.667v2.667z"/>
    </symbol>
    <symbol id="icon-map" viewBox="0 0 32 32">
      <path d="M5.868 2.349C2.987 3.636.541 4.754.433 4.834s-.25.258-.315.394C.01 5.457 0 6.519 0 18.277c0 11.717.01 12.82.117 13.047.162.341.534.607.909.649.287.032.705-.14 5.335-2.198l5.024-2.233 4.45 2.224c3.402 1.701 4.511 2.225 4.711 2.225.188 0 1.735-.654 5.518-2.333 2.891-1.283 5.356-2.406 5.479-2.496.493-.362.456.726.456-13.457 0-11.717-.01-12.82-.117-13.046a1.202 1.202 0 0 0-.909-.649c-.287-.032-.705.14-5.335 2.198l-5.024 2.233-4.45-2.225C12.3.284 11.674-.007 11.411 0c-.233.007-1.519.552-5.542 2.348zm4.418 11.881v11.309L6.411 27.26a652.675 652.675 0 0 1-4 1.769c-.119.045-.125-.521-.125-11.27V6.442l3.946-1.758c2.17-.967 3.97-1.759 4-1.762s.054 5.086.054 11.306zm19.428 0v11.309l-3.875 1.721a652.675 652.675 0 0 1-4 1.769c-.119.045-.125-.521-.125-11.27V6.442l3.946-1.758c2.171-.967 3.97-1.759 4-1.762s.054 5.086.054 11.306zm-10.286 3.476v11.285l-6.857-3.429V2.991l6.857 3.429v11.286z"/>
    </symbol>
    <symbol id="icon-pc" viewBox="0 0 45 32">
      <path d="M6.834.147a6.087 6.087 0 0 0-1.09.402c-.667.338-1.668 1.338-2.006 2.003-.562 1.109-.556.987-.557 10.724l-.002 8.961-1.077.034c-.989.031-1.105.055-1.427.301-.622.475-.677.711-.675 2.928.002 2.159.103 2.84.557 3.736.336.663 1.338 1.665 2.001 2.001 1.152.584.161.556 19.664.557 11.766.001 18.084-.033 18.435-.1.887-.168 1.73-.627 2.419-1.316 1.199-1.199 1.443-2.023 1.445-4.879.002-2.216-.053-2.452-.675-2.928-.322-.246-.438-.27-1.427-.301l-1.076-.034-.002-8.961c-.002-9.701.003-9.619-.542-10.693-.136-.268-.498-.759-.806-1.091-.632-.683-1.624-1.235-2.515-1.4C37.136.027 31.62-.005 22.173 0 9.933.007 7.305.032 6.834.146zm30.595 3.28c.151.113.367.328.479.479.203.272.205.36.231 9.311l.026 9.037H6.359v-8.889c0-6.055.034-8.978.106-9.168a1.67 1.67 0 0 1 .838-.885c.245-.109 2.911-.129 15.075-.111 14.752.021 14.777.022 15.051.226zm-29.48 9.287v7.951h28.623V4.763H7.949v7.951zm25.443 0v4.77H11.13V7.943h22.262v4.771zM15.938 25.75c.086.429.476.916.891 1.113.305.145.921.163 5.432.163s5.127-.018 5.432-.163c.415-.197.805-.684.891-1.113l.063-.315h12.714l-.034 1.086c-.036 1.174-.123 1.395-.718 1.839l-.274.205H4.188l-.275-.205c-.595-.444-.682-.666-.718-1.839l-.034-1.086h12.714l.063.315z"/>
    </symbol>
    <symbol id="icon-stonks" viewBox="0 0 26 32">
      <path d="M18.673.105c-.701.305-.922 1.261-.427 1.849.344.409.517.441 2.356.441h1.668l-6.697 6.697-2.115-2.108c-1.825-1.819-2.154-2.115-2.396-2.159-.402-.074-.771.016-1.049.255-.133.114-2.402 2.097-5.043 4.406C-.217 14.022-.063 13.865.027 14.54c.101.754.934 1.23 1.626.93.143-.062 2.245-1.852 4.671-3.977l4.411-3.864 2.137 2.13c1.845 1.839 2.176 2.137 2.418 2.181.695.127.513.279 4.749-3.951l3.907-3.901.023 1.767c.021 1.649.033 1.781.177 1.974.293.393.533.515 1.006.515s.712-.123 1.006-.515c.15-.2.155-.306.175-3.592l.021-3.386-.172-.256a1.888 1.888 0 0 0-.425-.426l-.253-.17-3.301.003c-2.575.002-3.351.025-3.529.102zm1.198 11.974c-.302.133-.616.516-.67.815-.024.133-.034 4.12-.022 8.861.021 8.573.022 8.621.176 8.827.085.114.247.276.361.361.2.149.295.154 3.04.154s2.84-.005 3.04-.154c.114-.085.276-.247.361-.361.154-.206.154-.235.154-9.027s0-8.821-.154-9.027a2.126 2.126 0 0 0-.361-.361c-.199-.149-.31-.155-2.952-.171-2.168-.014-2.793.004-2.973.084zm-9.58 2.395c-.302.133-.616.516-.67.815-.024.133-.034 3.581-.022 7.664.021 7.363.023 7.424.176 7.629.085.114.247.276.361.361.2.149.295.154 3.04.154s2.84-.005 3.04-.154c.114-.085.276-.247.361-.361.154-.206.154-.247.154-7.83s-.001-7.624-.154-7.83a2.126 2.126 0 0 0-.361-.361c-.199-.148-.31-.155-2.952-.171-2.168-.014-2.793.004-2.973.084zm13.663 7.081v7.185h-2.395V14.37h2.395v7.185zm-9.58 1.197v5.987h-2.395V16.764h2.395v5.987zM.711 18.066c-.302.133-.616.515-.67.815-.024.133-.034 2.773-.022 5.868.021 5.549.024 5.629.176 5.833.085.114.247.276.361.361.2.149.295.154 3.04.154s2.84-.005 3.04-.154c.114-.085.276-.247.361-.361.153-.205.154-.265.154-6.034s-.002-5.829-.154-6.034a2.126 2.126 0 0 0-.361-.361c-.199-.149-.31-.155-2.952-.171-2.168-.014-2.793.004-2.973.084zm4.083 6.483v4.191H2.399v-8.383h2.395v4.191z"/>
    </symbol>
    <symbol id="icon-loudspeaker" viewBox="0 0 32 32">
      <path d="M25.468.03a798.54 798.54 0 0 0-5.559 3.074l-5.444 3.025H8.87c-4.776 0-5.661.017-6.047.118A3.754 3.754 0 0 0 .128 8.951c-.172.66-.169 8.471.003 9.133a3.754 3.754 0 0 0 2.704 2.695c.281.073.802.115 1.444.115h1.003l1.751 5.255c1.858 5.576 1.839 5.53 2.387 5.737.346.131 5.527.11 5.846-.023.326-.136.648-.523.71-.853.047-.251-1.105-7.52-1.283-8.093-.164-.529-.812-.871-1.428-.756-.376.07-.838.531-.909.904-.036.193.105 1.22.455 3.32.279 1.672.507 3.059.507 3.081s-.58.041-1.289.041h-1.288l-2.87-8.613h6.594l5.482 3.055c5.4 3.009 5.489 3.055 5.919 3.057.472.002.72-.126 1.02-.527.154-.206.159-.317.181-3.571l.023-3.359.67-.209c2.123-.663 3.699-2.468 4.137-4.739.571-2.963-1.255-6.017-4.137-6.917l-.67-.209-.023-3.359C27.045.862 27.04.75 26.886.545c-.263-.353-.537-.511-.932-.538-.204-.014-.423-.004-.486.023zm-.846 13.472V23.72l-8.609-4.784-.021-4.168c-.021-4.073-.025-4.173-.18-4.38-.301-.403-.547-.529-1.033-.529s-.732.126-1.033.529c-.155.207-.159.31-.18 4.13l-.021 3.918-5.145-.021c-5.06-.02-5.148-.023-5.357-.179a2.17 2.17 0 0 1-.371-.371c-.156-.208-.159-.291-.159-4.354s.003-4.146.159-4.354a2.17 2.17 0 0 1 .371-.371c.21-.156.29-.159 6.147-.181l5.935-.022 4.73-2.642c2.601-1.453 4.738-2.646 4.749-2.65s.019 4.589.019 10.209zm2.94-3.25c.218.111.594.389.834.618a3.637 3.637 0 0 1 0 5.282c-.358.342-1.1.82-1.272.82-.023 0-.041-1.557-.041-3.461s.018-3.461.041-3.461c.023 0 .22.091.438.201z"/>
    </symbol>
    <symbol id="icon-quote2" viewBox="0 0 45 32">
      <path d="M0 23.852v-7.935h6.735c5.718 0 6.735-.034 6.735-.222 0-.122-.085-.766-.189-1.43-.468-2.992-2.403-5.959-5.052-7.748-2.077-1.402-4.125-2.154-6.653-2.442L0 3.895V.046l1.006.002c.553.001 1.714.133 2.58.293 3.506.647 6.39 2.031 8.936 4.287C14.973 6.8 16.415 8.994 17.367 12c.365 1.153.38 1.515.435 10.491l.056 9.297H0v-7.935zm26.939 0v-7.935h13.345l-.094-1.219c-.11-1.431-.86-3.507-1.729-4.785-2.275-3.348-6.055-5.488-10.428-5.903l-1.093-.104V.001l1.531.093c2.155.13 4.024.602 6.254 1.578 4.781 2.092 8.067 5.668 9.5 10.338l.459 1.497.059 9.141.058 9.141H26.94v-7.935zm-13.469.078v-3.968H4.549v7.935h8.921v-3.968zm26.764 0v-3.968h-8.921v7.935h8.921v-3.968z"/>
    </symbol>
    <symbol id="icon-quote" viewBox="0 0 45 32">
      <path d="M44.8 23.852v-7.935h-6.735c-5.718 0-6.735-.034-6.735-.222 0-.122.085-.766.189-1.43.468-2.992 2.403-5.959 5.052-7.748 2.077-1.402 4.125-2.154 6.653-2.442l1.576-.18V.046l-1.006.002c-.553.001-1.714.133-2.58.293-3.506.647-6.39 2.031-8.936 4.287C29.827 6.8 28.385 8.994 27.433 12c-.365 1.153-.38 1.515-.435 10.491l-.056 9.297H44.8v-7.935zm-26.939 0v-7.935H4.516l.094-1.219c.11-1.431.86-3.507 1.729-4.785 2.275-3.348 6.055-5.488 10.428-5.903l1.093-.104V.001l-1.531.093c-2.155.13-4.024.602-6.254 1.578C5.294 3.764 2.008 7.34.575 12.01l-.459 1.497-.059 9.141-.058 9.141H17.86v-7.935zm13.469.078v-3.968h8.921v7.935H31.33v-3.968zm-26.764 0v-3.968h8.921v7.935H4.566v-3.968z"/>
    </symbol>
    <symbol id="icon-star" viewBox="0 0 27 32">
      <path d="M12.615 1.565c.316-1.106 1.882-1.106 2.198 0l2.09 7.322c.169.593.779.945 1.377.795l7.386-1.851c1.115-.28 1.899 1.077 1.099 1.903l-5.296 5.471a1.143 1.143 0 0 0 0 1.59l5.296 5.471c.8.826.016 2.183-1.099 1.903l-7.386-1.851a1.143 1.143 0 0 0-1.377.795l-2.09 7.322c-.316 1.106-1.882 1.106-2.198 0l-2.09-7.322a1.143 1.143 0 0 0-1.377-.795l-7.386 1.851c-1.115.28-1.899-1.078-1.099-1.903l5.296-5.471a1.143 1.143 0 0 0 0-1.59L.663 9.734c-.8-.826-.016-2.183 1.099-1.904l7.386 1.851a1.143 1.143 0 0 0 1.377-.795l2.09-7.322z"/>
    </symbol>
    <symbol id="icon-reset" viewBox="0 0 32 32">
      <path d="M11.5 11.333h-6a1.335 1.335 0 0 1-1.334-1.334v-6a1.335 1.335 0 0 1 2.277-.943c.25.251.391.589.391.943v4.667h4.667a1.335 1.335 0 0 1 .943 2.277c-.251.25-.589.391-.943.391z"/>
      <path d="M28 17.333A1.333 1.333 0 0 1 26.667 16a10.665 10.665 0 0 0-7.9-10.301 10.66 10.66 0 0 0-11.993 4.969 1.333 1.333 0 0 1-2.308-1.336 13.325 13.325 0 0 1 24.867 6.669A1.333 1.333 0 0 1 28 17.334zm-1.5 12A1.333 1.333 0 0 1 25.167 28v-4.667H20.5a1.333 1.333 0 1 1 0-2.667h6A1.33 1.33 0 0 1 27.833 22v6a1.333 1.333 0 0 1-1.333 1.333z"/>
      <path d="M16 29.333A13.353 13.353 0 0 1 2.667 15.999a1.33 1.33 0 0 1 1.334-1.333 1.333 1.333 0 0 1 1.334 1.333 10.665 10.665 0 0 0 7.9 10.301 10.66 10.66 0 0 0 11.993-4.969 1.342 1.342 0 0 1 1.329-.655 1.351 1.351 0 0 1 .883.511 1.342 1.342 0 0 1 .264.986c-.022.173-.08.341-.168.492a13.365 13.365 0 0 1-11.534 6.665z"/>
    </symbol>
    <symbol id="icon-arrow" viewBox="0 0 48 32">
      <path d="M0 16a1.714 1.714 0 0 1 1.714-1.714h40.431L31.356 3.5a1.716 1.716 0 1 1 2.428-2.428l13.713 13.713a1.71 1.71 0 0 1 .373 1.871 1.731 1.731 0 0 1-.373.557L33.784 30.926a1.716 1.716 0 1 1-2.428-2.428l10.789-10.786H1.714A1.714 1.714 0 0 1 0 15.998z"/>
    </symbol>
    <symbol id="icon-location" viewBox="0 0 27 32">
      <path d="M13.33 32a52.923 52.923 0 0 1-6.222-6.277C4.264 22.326.886 17.266.886 12.445A12.448 12.448 0 0 1 8.567.942a12.446 12.446 0 0 1 13.566 2.701 12.362 12.362 0 0 1 3.641 8.802c0 4.821-3.378 9.881-6.222 13.278A52.923 52.923 0 0 1 13.33 32zm0-24.889a5.334 5.334 0 1 0 0 10.668 5.334 5.334 0 0 0 0-10.668z"/>
    </symbol>
    <symbol id="icon-tel" viewBox="0 0 25 32">
      <path d="m3.657.915 2.53-.763a3.593 3.593 0 0 1 4.311 1.967l1.774 3.944c.308.684.394 1.448.245 2.183s-.523 1.406-1.072 1.918l-2.7 2.516c-.362.344-.088 1.682 1.234 3.973 1.323 2.292 2.346 3.199 2.817 3.058l3.537-1.081a3.593 3.593 0 0 1 3.963 1.332l2.521 3.494a3.596 3.596 0 0 1-.442 4.71l-1.949 1.846a4.896 4.896 0 0 1-4.801 1.127c-4.083-1.25-7.864-4.959-11.395-11.076C.692 13.937-.644 8.77.287 4.549A4.895 4.895 0 0 1 3.656.916z"/>
    </symbol>
    <symbol id="icon-facebook" viewBox="0 0 17 32">
      <path d="M12.829 2.013c.504.055.952.055 1.456.11.336 0 .672.055 1.008.11v4.469h-.392c-.952 0-1.903 0-2.855.055-1.176.055-1.847.662-1.903 1.821-.056 1.214 0 2.428 0 3.697h4.982l-.672 4.966h-4.311v12.745H4.936V17.241H.569v-4.966h4.367V8.027c.056-1.545.56-2.979 1.679-4.193.84-.883 1.903-1.379 3.135-1.655.336-.055.672-.11.952-.166h2.127z"/>
    </symbol>
    <symbol id="icon-twitter" viewBox="0 0 37 32">
      <path d="M1.805 26.801c3.743.297 7.198-.594 10.222-2.971-3.167-.297-5.327-1.931-6.479-5.05 1.008.149 2.015.149 3.167-.149a7.64 7.64 0 0 1-4.031-2.525C3.676 14.769 3.1 13.284 3.1 11.501c1.008.446 2.016.891 3.167.891-1.584-1.188-2.447-2.525-2.879-4.308s-.144-3.565.72-5.199c3.743 4.605 8.494 7.13 14.397 7.576 0-.743-.144-1.337 0-2.08.144-2.971 2.303-5.793 5.039-6.536 2.591-.743 4.895 0 6.767 1.782.144.149.288.149.432.149 1.44-.297 2.736-.891 4.175-1.634-.576 1.634-1.584 2.971-2.879 3.862v.149c.576-.149 1.296-.297 1.871-.446s1.296-.446 1.872-.594c-.864 1.188-1.728 2.377-2.88 3.268-.432.297-.576.594-.576 1.188 0 3.268-.72 6.239-2.015 9.209-1.728 3.565-4.031 6.536-7.342 8.615-2.303 1.485-4.895 2.377-7.63 2.822a17.804 17.804 0 0 1-5.615 0c-2.879-.891-5.471-1.782-7.918-3.416z"/>
    </symbol>
    <symbol id="icon-logo" viewBox="0 0 24 32">
      <path d="M19.034 4.055c1.047 0 1.897-.842 1.897-1.88s-.849-1.88-1.897-1.88a1.889 1.889 0 0 0-1.897 1.88c0 .662.346 1.244.867 1.579-5.304 9.457-9.72 10.221-17.448.611a.226.226 0 0 0-.289-.054.21.21 0 0 0-.103.168.214.214 0 0 0 .041.147c8.152 11.348 8.474 17.179 6.91 27.114a.172.172 0 0 0 .169.199.174.174 0 0 0 .169-.137c2.56-11.522 6.541-14.512 16.484-15.694a.175.175 0 0 0 .155-.171c0-.107-.103-.187-.21-.168-10.571 1.884-10.809-1.734-5.526-11.84.21.08.439.124.678.124z"/>
    </symbol>
    <symbol id="icon-logom" viewBox="0 0 46 32">
<path fill="#f0e714" style="fill: var(--color1, #f0e714)" d="M1.068 16.974v-9.562h2.594v1.668h0.1c0.176-0.593 0.471-1.042 0.886-1.345 0.415-0.307 0.892-0.461 1.432-0.461 0.134 0 0.279 0.008 0.433 0.025s0.291 0.039 0.408 0.069v2.353c-0.126-0.037-0.299-0.071-0.521-0.1s-0.425-0.044-0.609-0.044c-0.394 0-0.745 0.085-1.055 0.255-0.306 0.166-0.549 0.398-0.729 0.697-0.176 0.299-0.264 0.643-0.264 1.033v5.41h-2.676zM8.306 16.974v-9.562h2.676v9.562h-2.676zM9.65 6.179c-0.398 0-0.739-0.131-1.024-0.392-0.281-0.266-0.421-0.583-0.421-0.952 0-0.365 0.14-0.679 0.421-0.94 0.285-0.266 0.626-0.398 1.024-0.398s0.737 0.133 1.018 0.398c0.285 0.261 0.427 0.575 0.427 0.94 0 0.369-0.142 0.687-0.427 0.952-0.281 0.261-0.62 0.392-1.018 0.392zM21.154 10.139l-2.45 0.149c-0.042-0.207-0.132-0.394-0.27-0.56-0.138-0.17-0.32-0.305-0.547-0.405-0.222-0.104-0.488-0.156-0.798-0.156-0.415 0-0.764 0.087-1.049 0.261-0.285 0.17-0.427 0.398-0.427 0.685 0 0.228 0.092 0.421 0.276 0.579s0.5 0.284 0.948 0.38l1.746 0.349c0.938 0.191 1.637 0.498 2.098 0.921s0.691 0.979 0.691 1.668c0 0.627-0.186 1.177-0.559 1.65-0.369 0.473-0.875 0.842-1.52 1.108-0.641 0.262-1.38 0.392-2.217 0.392-1.277 0-2.295-0.264-3.053-0.791-0.754-0.531-1.196-1.253-1.325-2.166l2.632-0.137c0.080 0.386 0.272 0.681 0.578 0.884 0.306 0.199 0.697 0.299 1.175 0.299 0.469 0 0.846-0.089 1.131-0.268 0.289-0.183 0.436-0.417 0.44-0.703-0.004-0.241-0.107-0.438-0.308-0.591-0.201-0.158-0.511-0.278-0.93-0.361l-1.671-0.33c-0.942-0.187-1.644-0.51-2.104-0.971-0.457-0.461-0.685-1.048-0.685-1.762 0-0.614 0.168-1.143 0.503-1.587 0.339-0.444 0.815-0.786 1.426-1.027 0.616-0.241 1.336-0.361 2.161-0.361 1.219 0 2.178 0.255 2.877 0.766 0.704 0.51 1.114 1.206 1.231 2.085zM27.456 17.161c-0.993 0-1.847-0.199-2.563-0.598-0.712-0.403-1.261-0.971-1.646-1.706-0.385-0.739-0.578-1.612-0.578-2.621 0-0.984 0.193-1.847 0.578-2.59s0.928-1.322 1.627-1.737c0.704-0.415 1.529-0.623 2.475-0.623 0.637 0 1.229 0.102 1.778 0.305 0.553 0.199 1.034 0.5 1.445 0.903 0.414 0.403 0.737 0.909 0.967 1.519 0.23 0.606 0.345 1.316 0.345 2.129v0.728h-8.147v-1.643h5.628c0-0.382-0.084-0.72-0.251-1.015s-0.4-0.525-0.697-0.691c-0.293-0.17-0.634-0.255-1.024-0.255-0.406 0-0.766 0.093-1.080 0.28-0.31 0.183-0.553 0.43-0.729 0.741-0.176 0.307-0.266 0.65-0.27 1.027v1.563c0 0.473 0.088 0.882 0.264 1.226 0.18 0.345 0.433 0.61 0.76 0.797s0.714 0.28 1.162 0.28c0.297 0 0.57-0.041 0.817-0.124s0.459-0.208 0.635-0.373c0.176-0.166 0.31-0.369 0.402-0.61l2.475 0.162c-0.126 0.589-0.383 1.104-0.773 1.544-0.385 0.436-0.884 0.776-1.495 1.021-0.607 0.241-1.309 0.361-2.104 0.361z"></path>
<path fill="#fff" style="fill: var(--color2, #fff)" d="M43.273 3.733c0.594 0 1.076-0.477 1.076-1.066s-0.482-1.066-1.076-1.066c-0.594 0-1.076 0.477-1.076 1.066 0 0.375 0.196 0.706 0.492 0.896-3.008 5.363-5.513 5.797-9.896 0.347-0.039-0.049-0.11-0.063-0.164-0.031-0.035 0.021-0.056 0.057-0.059 0.095-0.003 0.029 0.005 0.058 0.023 0.084 4.623 6.436 4.806 9.743 3.919 15.378-0.010 0.059 0.036 0.113 0.096 0.113 0.046 0 0.086-0.033 0.096-0.077 1.452-6.535 3.71-8.231 9.349-8.901 0.049-0.006 0.088-0.047 0.088-0.097 0-0.061-0.059-0.106-0.119-0.095-5.996 1.068-6.131-0.983-3.134-6.715 0.119 0.045 0.249 0.070 0.384 0.070z"></path>
<path fill="#fff" style="fill: var(--color2, #fff)" d="M3.183 29.616c-0.546 0-1.015-0.128-1.409-0.383s-0.697-0.607-0.909-1.055c-0.212-0.448-0.318-0.96-0.318-1.536 0-0.586 0.109-1.103 0.326-1.551 0.22-0.451 0.525-0.802 0.917-1.055 0.394-0.255 0.854-0.383 1.379-0.383 0.409 0 0.778 0.075 1.106 0.225s0.597 0.36 0.807 0.631c0.21 0.27 0.34 0.586 0.39 0.946h-0.894c-0.068-0.263-0.22-0.496-0.455-0.698-0.232-0.205-0.546-0.308-0.94-0.308-0.349 0-0.654 0.090-0.917 0.27-0.26 0.178-0.464 0.429-0.61 0.755-0.144 0.323-0.216 0.702-0.216 1.138 0 0.446 0.071 0.834 0.212 1.164 0.144 0.33 0.346 0.587 0.606 0.77 0.263 0.183 0.571 0.274 0.925 0.274 0.232 0 0.443-0.040 0.633-0.12s0.35-0.195 0.481-0.345c0.131-0.15 0.225-0.331 0.28-0.541h0.894c-0.051 0.34-0.176 0.647-0.375 0.92-0.197 0.27-0.458 0.486-0.784 0.646-0.323 0.158-0.7 0.236-1.129 0.236zM6.778 29.496v-5.768h0.864v0.871h0.061c0.106-0.285 0.298-0.517 0.576-0.695s0.591-0.267 0.94-0.267c0.066 0 0.148 0.001 0.246 0.004s0.173 0.006 0.224 0.011v0.901c-0.030-0.008-0.1-0.019-0.208-0.034-0.106-0.017-0.219-0.026-0.337-0.026-0.283 0-0.536 0.059-0.758 0.176-0.22 0.115-0.394 0.275-0.523 0.481-0.126 0.203-0.189 0.434-0.189 0.695v3.65h-0.894zM13.011 29.616c-0.561 0-1.044-0.123-1.451-0.368-0.404-0.248-0.716-0.593-0.936-1.036-0.217-0.446-0.326-0.964-0.326-1.555s0.109-1.111 0.326-1.562c0.22-0.453 0.525-0.806 0.917-1.059 0.394-0.255 0.854-0.383 1.379-0.383 0.303 0 0.602 0.050 0.898 0.15s0.565 0.263 0.807 0.488c0.242 0.223 0.436 0.518 0.58 0.886s0.216 0.821 0.216 1.359v0.375h-4.486v-0.766h3.577c0-0.325-0.066-0.616-0.197-0.871-0.129-0.255-0.313-0.457-0.553-0.605-0.237-0.148-0.518-0.222-0.841-0.222-0.356 0-0.664 0.088-0.925 0.263-0.258 0.173-0.456 0.398-0.595 0.676s-0.208 0.576-0.208 0.894v0.511c0 0.436 0.076 0.805 0.227 1.108 0.154 0.3 0.368 0.53 0.64 0.687 0.273 0.155 0.59 0.233 0.951 0.233 0.235 0 0.447-0.033 0.636-0.098 0.192-0.068 0.357-0.168 0.496-0.3 0.139-0.135 0.246-0.303 0.322-0.503l0.864 0.24c-0.091 0.29-0.244 0.546-0.458 0.766-0.215 0.218-0.48 0.388-0.796 0.511-0.316 0.12-0.671 0.18-1.065 0.18zM18.494 29.631c-0.369 0-0.703-0.069-1.004-0.206-0.301-0.14-0.539-0.342-0.716-0.605-0.177-0.265-0.265-0.586-0.265-0.961 0-0.33 0.066-0.598 0.197-0.803 0.131-0.208 0.307-0.37 0.527-0.488s0.462-0.205 0.727-0.263c0.268-0.060 0.537-0.108 0.807-0.143 0.354-0.045 0.64-0.079 0.86-0.101 0.222-0.025 0.384-0.066 0.485-0.124 0.104-0.058 0.155-0.158 0.155-0.3v-0.030c0-0.37-0.102-0.658-0.307-0.864-0.202-0.205-0.509-0.308-0.921-0.308-0.427 0-0.762 0.093-1.004 0.278s-0.413 0.383-0.512 0.593l-0.849-0.3c0.152-0.35 0.354-0.623 0.606-0.819 0.255-0.198 0.533-0.335 0.834-0.413 0.303-0.080 0.601-0.12 0.894-0.12 0.187 0 0.402 0.023 0.644 0.068 0.245 0.043 0.481 0.131 0.709 0.267 0.23 0.135 0.421 0.339 0.572 0.612s0.227 0.638 0.227 1.096v3.8h-0.894v-0.781h-0.045c-0.061 0.125-0.162 0.259-0.303 0.402s-0.33 0.264-0.565 0.364c-0.235 0.1-0.522 0.15-0.86 0.15zM18.63 28.835c0.354 0 0.652-0.069 0.894-0.206 0.245-0.138 0.429-0.316 0.553-0.533 0.126-0.218 0.189-0.447 0.189-0.687v-0.811c-0.038 0.045-0.121 0.086-0.25 0.124-0.126 0.035-0.273 0.066-0.44 0.094-0.164 0.025-0.325 0.048-0.481 0.068-0.154 0.017-0.279 0.033-0.375 0.045-0.232 0.030-0.45 0.079-0.652 0.146-0.2 0.065-0.361 0.164-0.485 0.297-0.121 0.13-0.182 0.308-0.182 0.533 0 0.308 0.115 0.541 0.345 0.698 0.232 0.155 0.527 0.233 0.883 0.233zM25.324 23.728v0.751h-3.016v-0.751h3.016zM23.187 22.346h0.894v5.497c0 0.25 0.037 0.438 0.11 0.564 0.076 0.122 0.172 0.205 0.288 0.248 0.119 0.040 0.244 0.060 0.375 0.060 0.098 0 0.179-0.005 0.242-0.015 0.063-0.012 0.114-0.023 0.152-0.030l0.182 0.796c-0.061 0.023-0.145 0.045-0.254 0.068-0.109 0.025-0.246 0.038-0.413 0.038-0.253 0-0.5-0.054-0.743-0.161-0.24-0.108-0.439-0.272-0.599-0.492-0.157-0.22-0.235-0.498-0.235-0.834v-5.738zM26.669 29.496v-5.768h0.894v5.768h-0.894zM27.124 22.767c-0.174 0-0.325-0.059-0.451-0.176-0.124-0.118-0.186-0.259-0.186-0.424s0.062-0.307 0.186-0.424c0.126-0.118 0.277-0.176 0.451-0.176s0.323 0.059 0.447 0.176c0.126 0.118 0.189 0.259 0.189 0.424s-0.063 0.307-0.189 0.424c-0.124 0.118-0.273 0.176-0.447 0.176zM33.96 23.728l-2.152 5.768h-0.909l-2.152-5.768h0.97l1.607 4.596h0.060l1.607-4.596h0.97zM37.372 29.616c-0.561 0-1.044-0.123-1.451-0.368-0.404-0.248-0.716-0.593-0.936-1.036-0.217-0.446-0.326-0.964-0.326-1.555s0.109-1.111 0.326-1.562c0.22-0.453 0.525-0.806 0.917-1.059 0.394-0.255 0.854-0.383 1.379-0.383 0.303 0 0.603 0.050 0.898 0.15s0.565 0.263 0.807 0.488c0.242 0.223 0.436 0.518 0.58 0.886s0.216 0.821 0.216 1.359v0.375h-4.486v-0.766h3.577c0-0.325-0.066-0.616-0.197-0.871-0.129-0.255-0.313-0.457-0.553-0.605-0.238-0.148-0.518-0.222-0.841-0.222-0.356 0-0.664 0.088-0.924 0.263-0.258 0.173-0.456 0.398-0.595 0.676s-0.208 0.576-0.208 0.894v0.511c0 0.436 0.076 0.805 0.227 1.108 0.154 0.3 0.368 0.53 0.64 0.687 0.273 0.155 0.59 0.233 0.951 0.233 0.235 0 0.447-0.033 0.637-0.098 0.192-0.068 0.357-0.168 0.496-0.3 0.139-0.135 0.246-0.303 0.322-0.503l0.864 0.24c-0.091 0.29-0.244 0.546-0.459 0.766-0.215 0.218-0.48 0.388-0.796 0.511-0.316 0.12-0.671 0.18-1.065 0.18z"></path>
</symbol>
<symbol id="icon-dropbox" viewBox="0 0 161 32">
<path d="M18.672 6.013l-9.336 6.013 9.336 6.013-9.336 6.013-9.336-6.046 9.336-6.013-9.336-5.981 9.336-6.013 9.336 6.013zM9.288 25.987l9.336-6.013 9.336 6.013-9.336 6.013-9.336-6.013zM18.672 18.007l9.336-6.013-9.336-5.981 9.288-6.013 9.336 6.013-9.336 6.013 9.336 6.013-9.336 6.013-9.288-6.046z"></path>
<path d="M44.621 6.013h7.549c4.813 0 8.789 2.812 8.789 9.231v1.349c0 6.468-3.718 9.377-8.644 9.377h-7.694v-19.957zM48.839 9.637v12.693h3.236c2.736 0 4.572-1.804 4.572-5.818v-1.056c0-4.014-1.932-5.818-4.716-5.818h-3.091zM63.197 9.832h3.38l0.547 3.754c0.644-2.552 2.286-3.917 5.264-3.917h1.046v4.307h-1.738c-3.429 0-4.266 1.203-4.266 4.616v7.427h-4.169v-16.187h-0.064zM74.272 18.251v-0.455c0-5.412 3.429-8.37 8.097-8.37 4.765 0 8.097 2.958 8.097 8.37v0.455c0 5.314-3.236 8.175-8.097 8.175-5.167-0.049-8.097-2.844-8.097-8.175zM86.2 18.202v-0.406c0-3.007-1.497-4.811-3.879-4.811-2.334 0-3.879 1.658-3.879 4.811v0.406c0 2.909 1.497 4.567 3.879 4.567 2.382-0.049 3.879-1.658 3.879-4.567zM92.655 9.832h3.477l0.402 3.055c0.837-2.048 2.623-3.462 5.264-3.462 4.073 0 6.761 2.958 6.761 8.435v0.455c0 5.314-2.978 8.126-6.761 8.126-2.527 0-4.266-1.154-5.119-3.007v8.175h-4.073l0.048-21.778zM104.325 18.202v-0.358c0-3.218-1.642-4.811-3.831-4.811-2.334 0-3.879 1.804-3.879 4.811v0.309c0 2.86 1.497 4.664 3.831 4.664 2.399-0.049 3.88-1.593 3.88-4.616zM114.724 23.029l-0.355 2.958h-3.573v-21.566h4.073v8.272c0.902-2.113 2.688-3.267 5.215-3.267 3.831 0.049 6.665 2.714 6.665 8.077v0.504c0 5.363-2.688 8.435-6.761 8.435-2.688-0.065-4.427-1.316-5.263-3.413zM122.466 18.007v-0.406c0-2.958-1.593-4.616-3.831-4.616-2.286 0-3.879 1.853-3.879 4.664v0.358c0 3.007 1.545 4.762 3.831 4.762 2.447 0 3.879-1.544 3.879-4.762zM128.534 18.251v-0.455c0-5.412 3.429-8.37 8.097-8.37 4.765 0 8.097 2.958 8.097 8.37v0.455c0 5.314-3.283 8.175-8.097 8.175-5.167-0.049-8.097-2.844-8.097-8.175zM140.495 18.202v-0.406c0-3.007-1.497-4.811-3.879-4.811-2.334 0-3.88 1.658-3.88 4.811v0.406c0 2.909 1.497 4.567 3.88 4.567 2.398-0.049 3.879-1.658 3.879-4.567zM150.185 17.601l-5.617-7.768h4.813l3.236 4.859 3.283-4.859h4.765l-5.698 7.72 6.003 8.435h-4.716l-3.67-5.363-3.573 5.363h-4.926l6.1-8.386z"></path>
</symbol>
<symbol id="icon-google" viewBox="0 0 98 32">
<path d="M41.913 16.84c0 4.604-3.629 7.996-8.082 7.996s-8.082-3.393-8.082-7.996c0-4.636 3.629-7.996 8.082-7.996s8.082 3.36 8.082 7.996zM38.376 16.84c0-2.877-2.103-4.845-4.544-4.845s-4.544 1.968-4.544 4.845c0 2.848 2.103 4.845 4.544 4.845s4.544-2.001 4.544-4.845z"></path>
<path d="M59.347 16.84c0 4.604-3.629 7.996-8.082 7.996s-8.082-3.393-8.082-7.996c0-4.633 3.629-7.996 8.082-7.996s8.082 3.36 8.082 7.996zM55.809 16.84c0-2.877-2.103-4.845-4.544-4.845s-4.544 1.969-4.544 4.845c0 2.848 2.103 4.845 4.544 4.845s4.544-2.001 4.544-4.845z"></path>
<path d="M76.055 9.326v14.356c0 5.905-3.509 8.317-7.657 8.317-3.905 0-6.255-2.592-7.141-4.712l3.080-1.273c0.548 1.302 1.892 2.837 4.057 2.837 2.655 0 4.3-1.626 4.3-4.687v-1.15h-0.123c-0.792 0.97-2.317 1.817-4.242 1.817-4.028 0-7.718-3.483-7.718-7.964 0-4.514 3.69-8.025 7.718-8.025 1.921 0 3.447 0.847 4.242 1.788h0.123v-1.302h3.36v-0.004zM72.946 16.869c0-2.816-1.892-4.874-4.301-4.874-2.441 0-4.486 2.059-4.486 4.874 0 2.787 2.045 4.817 4.486 4.817 2.408 0 4.301-2.030 4.301-4.817z"></path>
<path d="M81.594 0.912v23.434h-3.451v-23.434h3.451z"></path>
<path d="M95.041 19.472l2.746 1.817c-0.886 1.301-3.022 3.544-6.712 3.544-4.577 0-7.995-3.512-7.995-7.996 0-4.755 3.447-7.996 7.599-7.996 4.181 0 6.226 3.302 6.894 5.087l0.368 0.909-10.77 4.427c0.825 1.604 2.107 2.423 3.905 2.423 1.802 0 3.051-0.88 3.966-2.214zM86.588 16.595l7.199-2.967c-0.396-0.999-1.587-1.694-2.989-1.694-1.798 0-4.301 1.575-4.21 4.662z"></path>
<path d="M12.687 14.76v-3.393h11.518c0.113 0.591 0.171 1.291 0.171 2.048 0 2.545-0.701 5.693-2.96 7.935-2.197 2.271-5.005 3.483-8.725 3.483-6.894 0-12.691-5.574-12.691-12.416s5.797-12.416 12.691-12.416c3.814 0 6.531 1.485 8.572 3.421l-2.412 2.394c-1.464-1.363-3.447-2.423-6.164-2.423-5.034 0-8.972 4.027-8.972 9.024s3.937 9.024 8.972 9.024c3.265 0 5.125-1.302 6.316-2.484 0.966-0.959 1.602-2.329 1.852-4.2l-8.169 0.004z"></path>
</symbol>
<symbol id="icon-amazon" viewBox="0 0 105 32">
<path d="M65.139 25.025c-6.102 4.548-14.946 6.975-22.56 6.975-10.677 0-20.289-3.994-27.561-10.636-0.571-0.522-0.059-1.234 0.626-0.827 7.848 4.618 17.551 7.396 27.574 7.396 6.76 0 14.196-1.414 21.034-4.35 1.033-0.444 1.897 0.684 0.887 1.442z"></path>
<path d="M67.676 22.090c-0.777-1.008-5.156-0.476-7.121-0.24-0.599 0.074-0.69-0.453-0.151-0.832 3.487-2.482 9.21-1.766 9.877-0.934 0.667 0.837-0.174 6.638-3.451 9.406-0.503 0.425-0.983 0.199-0.759-0.365 0.736-1.858 2.386-6.023 1.604-7.035z"></path>
<path d="M60.693 3.494c0 0.361 0.274 0.606 0.617 0.606h5.581l-6.413 9.3c-0.388 0.596-0.393 1.266-0.393 1.659v2.445c0 0.351 0.389 0.758 0.759 0.555 3.634-1.951 7.998-1.761 11.285-0.019 0.402 0.213 0.786-0.199 0.786-0.55v-2.575c-0.032-0.347-0.146-0.698-0.567-0.938-1.865-1.063-4.036-1.373-6.093-1.322l5.535-7.992c0.512-0.716 0.8-1.169 0.804-1.516v-2.066c0-0.361-0.274-0.61-0.617-0.61h-10.681c-0.329 0-0.603 0.245-0.603 0.61v2.413zM21.729 18.549h-3.25c-0.311-0.023-0.558-0.259-0.58-0.559v-16.867c0-0.337 0.279-0.606 0.626-0.606h3.030c0.315 0.014 0.567 0.259 0.59 0.564v2.205h0.059c0.791-2.131 2.276-3.125 4.278-3.125 2.034 0 3.305 0.994 4.219 3.125 0.786-2.131 2.573-3.125 4.488-3.125 1.362 0 2.852 0.569 3.762 1.844 1.028 1.419 0.818 3.481 0.818 5.288l-0.005 10.645c0 0.337-0.279 0.61-0.626 0.61h-3.245c-0.324-0.023-0.585-0.287-0.585-0.61v-8.94c0-0.712 0.064-2.487-0.091-3.162-0.242-1.133-0.969-1.451-1.911-1.451-0.786 0-1.609 0.532-1.942 1.382s-0.302 2.274-0.302 3.231v8.939c0 0.337-0.279 0.61-0.626 0.61h-3.245c-0.329-0.023-0.585-0.286-0.585-0.61l-0.005-8.939c0-1.881 0.306-4.65-2.002-4.65-2.336 0-2.244 2.699-2.244 4.65v8.939c0 0.337-0.279 0.61-0.626 0.61zM81.791 0.162c4.822 0 7.432 4.188 7.432 9.513 0 5.145-2.884 9.226-7.432 9.226-4.735 0-7.313-4.188-7.313-9.406 0-5.251 2.61-9.332 7.313-9.332zM81.818 3.605c-2.395 0-2.546 3.3-2.546 5.357 0 2.062-0.032 6.462 2.519 6.462 2.518 0 2.637-3.55 2.637-5.713 0-1.424-0.059-3.125-0.484-4.474-0.366-1.174-1.092-1.632-2.125-1.632h-0zM95.475 18.549h-3.237c-0.325-0.023-0.585-0.286-0.585-0.61l-0.005-16.871c0.027-0.31 0.297-0.55 0.626-0.55h3.013c0.283 0.014 0.517 0.208 0.581 0.471v2.579h0.059c0.909-2.307 2.184-3.407 4.429-3.407 1.457 0 2.879 0.531 3.793 1.988 0.85 1.35 0.85 3.619 0.85 5.251v10.617c-0.037 0.296-0.306 0.532-0.626 0.532h-3.258c-0.297-0.023-0.544-0.245-0.576-0.532v-9.161c0-1.844 0.21-4.544-2.034-4.544-0.791 0-1.518 0.536-1.878 1.35-0.457 1.031-0.517 2.057-0.517 3.194v9.083c-0.005 0.337-0.288 0.61-0.635 0.61zM52.178 10.493c0 1.28 0.032 2.348-0.608 3.485-0.516 0.925-1.339 1.493-2.249 1.493-1.248 0-1.979-0.961-1.979-2.38 0-2.801 2.482-3.31 4.836-3.31v0.712zM55.455 18.503c-0.215 0.194-0.526 0.208-0.768 0.079-1.079-0.906-1.275-1.327-1.865-2.191-1.783 1.84-3.048 2.39-5.357 2.39-2.738 0-4.863-1.706-4.863-5.121 0-2.667 1.426-4.484 3.464-5.371 1.764-0.786 4.228-0.924 6.111-1.142v-0.425c0-0.781 0.059-1.706-0.398-2.381-0.393-0.605-1.152-0.855-1.824-0.855-1.239 0-2.34 0.642-2.61 1.974-0.055 0.296-0.27 0.587-0.567 0.601l-3.149-0.342c-0.265-0.060-0.562-0.277-0.484-0.689 0.722-3.864 4.178-5.029 7.267-5.029 1.581 0 3.647 0.425 4.895 1.636 1.581 1.493 1.431 3.485 1.431 5.653v5.121c0 1.539 0.631 2.214 1.225 3.046 0.206 0.296 0.251 0.652-0.014 0.874-0.663 0.559-1.842 1.599-2.491 2.182l-0.005-0.009h-0zM9.575 10.493c0 1.28 0.032 2.348-0.608 3.485-0.516 0.925-1.335 1.493-2.249 1.493-1.248 0-1.975-0.961-1.975-2.38 0-2.801 2.482-3.31 4.831-3.31v0.712zM12.852 18.503c-0.215 0.194-0.526 0.208-0.768 0.079-1.079-0.906-1.271-1.327-1.865-2.191-1.783 1.84-3.044 2.39-5.357 2.39-2.733 0-4.863-1.706-4.863-5.121 0-2.667 1.431-4.484 3.464-5.371 1.764-0.786 4.228-0.924 6.111-1.142v-0.425c0-0.781 0.059-1.706-0.393-2.381-0.398-0.605-1.156-0.855-1.824-0.855-1.239 0-2.345 0.642-2.614 1.974-0.055 0.296-0.27 0.587-0.562 0.601l-3.154-0.342c-0.265-0.060-0.558-0.277-0.484-0.689 0.727-3.864 4.178-5.029 7.267-5.029 1.581 0 3.647 0.425 4.895 1.636 1.581 1.493 1.431 3.485 1.431 5.653v5.121c0 1.539 0.631 2.214 1.225 3.046 0.21 0.296 0.256 0.652-0.009 0.874-0.663 0.559-1.842 1.599-2.491 2.182l-0.009-0.009z"></path>
</symbol>
<symbol id="icon-hubspot" viewBox="0 0 113 32">
<path d="M12.222 5.172v8.809h-8.289v-8.809h-3.933v21.028h3.934v-8.523h8.287v8.523h3.935v-21.028h-3.934zM28.747 19.404c0 0.843-0.343 1.651-0.953 2.247s-1.438 0.931-2.302 0.931c-0.863 0-1.691-0.335-2.302-0.931s-0.953-1.404-0.953-2.247v-9.007h-3.731v9.007c0 1.807 0.735 3.54 2.044 4.818s3.084 1.996 4.935 1.996c1.851 0 3.626-0.718 4.935-1.996s2.044-3.011 2.044-4.818v-9.007h-3.718v9.007zM56.396 11.325c0-1.847 1.251-2.432 2.621-2.432 1.105 0 2.564 0.821 3.519 1.817l2.443-2.813c-1.22-1.611-3.694-2.724-5.72-2.724-4.049 0-6.976 2.315-6.976 6.152 0 7.12 8.913 4.86 8.913 8.845 0 1.229-1.222 2.314-2.621 2.314-2.207 0-2.922-1.053-3.936-2.167l-2.713 2.753c1.735 2.079 3.875 3.135 6.438 3.135 3.846 0 6.94-2.343 6.94-6.006 0-7.904-8.914-5.447-8.914-8.874h0.006zM111.536 22.841c-2.204 0-2.832-0.931-2.832-2.357v-6.314h3.428v-3.199h-3.428v-4.221l-3.783 1.658v12.862c0 3.29 2.325 4.948 5.512 4.948 0.5 0.008 1.001-0.031 1.492-0.116l0.923-3.318c-0.416 0.028-0.894 0.056-1.313 0.056v0.003zM42.951 10.501c-1.848 0-3.138 0.524-4.386 1.718v-6.921h-3.737v12.829c0 4.802 3.556 8.093 7.552 8.093 4.433 0 8.333-3.349 8.333-7.858 0-4.453-3.589-7.858-7.762-7.858v-0.003zM42.927 22.548c-0.557 0-1.108-0.107-1.623-0.315s-0.982-0.513-1.376-0.897c-0.394-0.385-0.706-0.841-0.919-1.343s-0.323-1.041-0.323-1.585 0.11-1.082 0.323-1.584c0.213-0.502 0.526-0.959 0.919-1.343s0.861-0.689 1.376-0.898c0.515-0.208 1.066-0.315 1.623-0.315 1.125 0 2.204 0.436 2.999 1.213s1.242 1.83 1.242 2.928c0 1.098-0.447 2.151-1.242 2.928s-1.874 1.213-2.999 1.213zM83.533 18.171c0-4.517-3.891-7.858-8.333-7.858-3.995 0-7.552 3.29-7.552 8.093v12.837h3.737v-6.931c1.246 1.192 2.538 1.718 4.384 1.718 4.173 0 7.763-3.405 7.763-7.859h0.001zM79.995 18.125c0 1.098-0.447 2.151-1.242 2.928s-1.874 1.213-2.999 1.213c-1.125 0-2.203-0.436-2.999-1.213s-1.242-1.83-1.242-2.928c0-1.098 0.447-2.151 1.242-2.928s1.874-1.213 2.999-1.213 2.203 0.436 2.999 1.213c0.795 0.776 1.242 1.83 1.242 2.928z"></path>
<path d="M95.609 10.136v-3.666c0.496-0.226 0.916-0.586 1.211-1.036s0.453-0.974 0.455-1.508v-0.084c0-1.559-1.295-2.823-2.891-2.823h-0.087c-0.766 0-1.502 0.297-2.044 0.827s-0.847 1.247-0.847 1.996v0.084c0.003 0.535 0.16 1.058 0.456 1.508s0.716 0.81 1.211 1.036v3.666c-1.426 0.213-2.769 0.79-3.893 1.673l-10.298-7.831c0.073-0.259 0.112-0.525 0.116-0.792 0.001-0.629-0.189-1.245-0.546-1.768s-0.865-0.932-1.46-1.174-1.25-0.306-1.882-0.184c-0.632 0.122-1.213 0.424-1.67 0.868s-0.768 1.010-0.894 1.627c-0.127 0.617-0.063 1.257 0.183 1.838s0.663 1.079 1.198 1.429c0.535 0.35 1.165 0.538 1.809 0.538 0.564-0.003 1.117-0.15 1.604-0.426l10.14 7.704c-0.911 1.344-1.386 2.924-1.364 4.535s0.541 3.178 1.489 4.497l-3.084 3.012c-0.249-0.078-0.509-0.119-0.771-0.123-0.529 0-1.046 0.154-1.486 0.441s-0.782 0.695-0.984 1.172c-0.202 0.477-0.255 1.002-0.152 1.509s0.358 0.972 0.732 1.337 0.85 0.614 1.369 0.715c0.519 0.101 1.057 0.049 1.545-0.148s0.907-0.532 1.201-0.961c0.294-0.429 0.451-0.934 0.452-1.45-0.003-0.256-0.046-0.509-0.126-0.752l3.051-2.98c0.995 0.748 2.152 1.263 3.383 1.507s2.501 0.209 3.717-0.101c1.215-0.31 2.341-0.887 3.292-1.688s1.701-1.803 2.194-2.931c0.493-1.128 0.715-2.35 0.649-3.575s-0.419-2.418-1.029-3.488c-0.612-1.071-1.466-1.991-2.497-2.69s-2.213-1.158-3.455-1.342zM94.343 22.193c-0.563 0.015-1.125-0.080-1.65-0.28s-1.005-0.501-1.409-0.885c-0.404-0.384-0.726-0.843-0.945-1.351s-0.333-1.053-0.333-1.603 0.113-1.096 0.333-1.603c0.22-0.507 0.541-0.967 0.945-1.351s0.883-0.685 1.409-0.885c0.526-0.2 1.087-0.296 1.65-0.28 1.094 0.037 2.128 0.487 2.888 1.255s1.185 1.794 1.186 2.861c0 1.068-0.423 2.094-1.182 2.863s-1.795 1.22-2.887 1.258z"></path>
</symbol>
<symbol id="icon-atlassian" viewBox="0 0 262 32">
<path d="M143.552 12.845c0 3.797 1.807 6.845 8.87 8.179 4.216 0.864 5.098 1.533 5.098 2.91s-0.882 2.203-3.876 2.203c-3.588-0.064-7.105-0.996-10.237-2.715v6.218c2.127 1.021 4.936 2.164 10.175 2.164 7.388 0 10.318-3.223 10.318-8.022l-20.346-10.937zM163.898 23.781c0-4.524-2.446-6.646-9.354-8.103-3.814-0.826-4.739-1.652-4.739-2.848 0-1.495 1.366-2.122 3.876-2.122 3.051 0 6.061 0.907 8.914 2.165v-5.929c-2.735-1.22-5.715-1.825-8.721-1.771-6.826 0-10.358 2.91-10.358 7.671z"></path>
<path d="M244.070 31.41v-19.704l2.369 5.231 7.95 14.473h7.064v-25.842h-5.621v16.68l-2.126-4.842-6.386-11.839h-8.87v25.842h5.619z"></path>
<path d="M196.562 5.568h6.143v25.842h-6.143v-25.842z"></path>
<path d="M189.475 23.781c0-4.524-2.446-6.646-9.355-8.103-3.812-0.826-4.737-1.652-4.737-2.848 0-1.495 1.366-2.122 3.875-2.122 3.053 0 6.061 0.907 8.914 2.165v-5.929c-2.735-1.22-5.714-1.825-8.719-1.771-6.827 0-10.358 2.91-10.358 7.671 0 3.797 1.807 6.845 8.871 8.179 4.214 0.864 5.096 1.533 5.096 2.91s-0.882 2.203-3.876 2.203c-3.588-0.064-7.105-0.996-10.237-2.715v6.218c2.127 1.021 4.938 2.164 10.175 2.164 7.388 0 10.319-3.223 10.319-8.022z"></path>
<path d="M108.467 31.41l1.986-5.582h-8.43v-20.259h-6.182v25.842h12.625z"></path>
<path d="M77.723 11.155v20.255h6.182v-20.255h7.306v-5.587h-20.314v5.587h6.826z"></path>
<path d="M61.934 5.568h-8.1l-9.205 25.842h7.049l1.289-4.353c3.216 0.928 6.638 0.928 9.854 0l1.303 4.353h7.025l-9.215-25.842zM57.884 22.4c-1.148 0.002-2.29-0.158-3.391-0.475l3.391-11.283 3.391 11.283c-1.102 0.316-2.243 0.476-3.391 0.475z"></path>
<path d="M130.229 5.568h-8.1l-9.205 25.842h7.025l1.313-4.353c3.21 0.924 6.624 0.924 9.835 0l1.303 4.353h7.025l-9.195-25.842zM126.179 22.4c-1.148 0.002-2.29-0.158-3.391-0.475l3.391-11.283 3.391 11.283c-1.101 0.316-2.243 0.476-3.391 0.475z"></path>
<path d="M224.835 5.568h-8.1l-9.205 25.842h7.025l1.313-4.353c3.21 0.924 6.624 0.924 9.834 0l1.304 4.353h7.025l-9.195-25.842zM220.785 22.4c-1.148 0.002-2.29-0.158-3.392-0.475l3.392-11.283 3.391 11.283c-1.101 0.316-2.243 0.476-3.391 0.475z"></path>
<path d="M9.222 14.656v-0c-0.083-0.094-0.187-0.168-0.305-0.215s-0.245-0.065-0.372-0.053c-0.107 0.019-0.207 0.064-0.291 0.13s-0.151 0.153-0.193 0.251l-7.987 15.642c-0.053 0.105-0.079 0.221-0.073 0.338s0.041 0.23 0.104 0.33 0.15 0.182 0.254 0.238c0.104 0.057 0.222 0.087 0.341 0.087h11.121c0.13 0.003 0.258-0.032 0.369-0.099s0.199-0.165 0.254-0.28c2.336-4.724 0.891-12.065-3.221-16.369z"></path>
<path d="M32 30.417c-0.15-0.294-14.964-29.337-15.328-30.059-0.048-0.101-0.122-0.188-0.216-0.251s-0.203-0.1-0.317-0.107l-0.025-0c-0.13 0.007-0.256 0.045-0.366 0.113s-0.201 0.161-0.264 0.273l-0.001 0.001c-4.016 6.233-4.471 13.759-1.217 20.131l5.361 10.505c0.057 0.116 0.146 0.214 0.257 0.282s0.24 0.105 0.371 0.105h11.119c0.119 0 0.237-0.030 0.341-0.087s0.192-0.139 0.255-0.238 0.098-0.213 0.104-0.33c0.005-0.117-0.020-0.233-0.073-0.338z"></path>
</symbol>
<symbol id="icon-hero-graph" viewBox="0 0 93 32">
<path fill="none" stroke="#24272e" style="stroke: var(--color1, #24272e)" stroke-linejoin="miter" stroke-linecap="round" stroke-miterlimit="4" stroke-width="1.0323" d="M2.581 2.506l1.329 0.462c1.329 0.462 3.988 1.386 6.647 3.949s5.318 6.765 7.977 5.035c2.659-1.73 5.318-9.392 7.977-11.058s5.318 2.665 7.977 3.641 5.318-1.402 7.977 1.663c2.659 3.066 5.318 11.576 7.977 12.191s5.318-14.71 7.977-15.883c2.659-1.173 5.318 11.806 7.976 16.032s5.318 7.744 7.977 4.375c2.659-3.368 5.318-13.622 7.976-17.519s5.318-1.436 6.647-0.206l1.33 1.23"></path>
<path fill="#f0e714" style="fill: var(--color2, #f0e714); stroke: var(--color3, #000)" stroke="#000" stroke-linejoin="miter" stroke-linecap="butt" stroke-miterlimit="4" stroke-width="1.5484" d="M61.419 3.613c0 1.425-1.155 2.581-2.581 2.581s-2.581-1.155-2.581-2.581c0-1.425 1.155-2.581 2.581-2.581s2.581 1.155 2.581 2.581z"></path>
</symbol>
<symbol id="icon-union" viewBox="0 0 42 32">
<path fill="#f0e714" style="fill: var(--color1, #f0e714)" d="M8.727 5.818c-1.205 0-2.182 0.977-2.182 2.182v11.088c0 1.205 0.977 2.182 2.182 2.182h0.314l0.884 3.298c0.029 0.108 0.164 0.144 0.243 0.065l3.363-3.363h19.359c1.205 0 2.182-0.977 2.182-2.182v-11.088c0-1.205-0.977-2.182-2.182-2.182h-24.163z"></path>
<path fill="#101c26" style="fill: var(--color2, #101c26)" d="M11.463 15.667v-1.528h-1.528v-0.588h1.528v-1.524h0.588v1.524h1.524v0.588h-1.524v1.528h-0.588zM16.303 16.849c-0.311 0-0.601-0.057-0.868-0.17-0.268-0.116-0.499-0.279-0.694-0.489-0.192-0.212-0.333-0.464-0.423-0.755l0.746-0.214c0.096 0.291 0.256 0.512 0.48 0.663s0.476 0.225 0.755 0.223c0.256-0.006 0.477-0.064 0.663-0.175 0.189-0.113 0.335-0.268 0.436-0.463 0.105-0.195 0.157-0.42 0.157-0.676 0-0.39-0.116-0.705-0.349-0.947-0.233-0.244-0.538-0.367-0.916-0.367-0.105 0-0.215 0.015-0.332 0.044-0.113 0.029-0.22 0.070-0.319 0.122l-0.375-0.615 2.33-2.108 0.1 0.262h-3.129v-0.742h3.705v0.746l-1.985 1.903-0.009-0.275c0.416-0.029 0.78 0.039 1.091 0.205s0.553 0.403 0.724 0.711c0.175 0.308 0.262 0.662 0.262 1.060 0 0.401-0.090 0.756-0.271 1.065s-0.425 0.551-0.733 0.729c-0.308 0.175-0.657 0.262-1.047 0.262zM21.513 16.858c-0.407 0-0.771-0.092-1.091-0.275-0.317-0.186-0.569-0.438-0.755-0.755-0.183-0.32-0.275-0.684-0.275-1.091v-2.304c0-0.407 0.092-0.771 0.275-1.091 0.186-0.32 0.438-0.572 0.755-0.755 0.32-0.183 0.684-0.275 1.091-0.275s0.771 0.092 1.091 0.275c0.32 0.183 0.572 0.435 0.755 0.755s0.275 0.684 0.275 1.091v2.304c0 0.407-0.092 0.771-0.275 1.091-0.183 0.317-0.435 0.569-0.755 0.755-0.32 0.183-0.684 0.275-1.091 0.275zM21.513 16.112c0.247 0 0.471-0.060 0.672-0.179s0.361-0.279 0.48-0.48c0.119-0.204 0.179-0.428 0.179-0.672v-2.396c0-0.247-0.060-0.471-0.179-0.672s-0.279-0.361-0.48-0.48c-0.201-0.119-0.425-0.179-0.672-0.179-0.244 0-0.468 0.060-0.672 0.179-0.201 0.119-0.361 0.279-0.48 0.48s-0.179 0.425-0.179 0.672v2.396c0 0.244 0.060 0.468 0.179 0.672 0.119 0.201 0.279 0.361 0.48 0.48 0.204 0.119 0.428 0.179 0.672 0.179zM25.348 16.727l-0.48-0.48 5.288-5.28 0.48 0.48-5.288 5.28zM29.436 16.847c-0.264 0-0.505-0.064-0.724-0.192-0.216-0.131-0.389-0.304-0.52-0.52-0.131-0.219-0.196-0.461-0.196-0.728 0-0.261 0.067-0.501 0.2-0.72s0.309-0.393 0.528-0.524c0.219-0.131 0.456-0.196 0.712-0.196 0.264 0 0.505 0.065 0.724 0.196 0.219 0.128 0.392 0.301 0.52 0.52 0.131 0.216 0.196 0.457 0.196 0.724s-0.065 0.509-0.196 0.728c-0.128 0.216-0.301 0.389-0.52 0.52-0.219 0.128-0.46 0.192-0.724 0.192zM29.436 16.219c0.147 0 0.281-0.037 0.404-0.112 0.125-0.075 0.224-0.173 0.296-0.296 0.075-0.123 0.112-0.257 0.112-0.404s-0.037-0.281-0.112-0.404c-0.072-0.125-0.171-0.224-0.296-0.296-0.123-0.075-0.257-0.112-0.404-0.112s-0.281 0.037-0.404 0.112c-0.123 0.072-0.221 0.171-0.296 0.296-0.075 0.123-0.112 0.257-0.112 0.404s0.037 0.281 0.112 0.404c0.075 0.123 0.173 0.221 0.296 0.296s0.257 0.112 0.404 0.112zM26.068 13.727c-0.264 0-0.505-0.064-0.724-0.192-0.219-0.131-0.393-0.304-0.524-0.52-0.128-0.219-0.192-0.461-0.192-0.728 0-0.261 0.067-0.501 0.2-0.72s0.309-0.393 0.528-0.524c0.219-0.131 0.456-0.196 0.712-0.196 0.264 0 0.504 0.065 0.72 0.196 0.219 0.128 0.393 0.301 0.524 0.52 0.131 0.216 0.196 0.457 0.196 0.724s-0.065 0.509-0.196 0.728c-0.131 0.216-0.305 0.389-0.524 0.52-0.216 0.128-0.456 0.192-0.72 0.192zM26.068 13.099c0.147 0 0.281-0.037 0.404-0.112 0.125-0.075 0.224-0.173 0.296-0.296 0.075-0.123 0.112-0.257 0.112-0.404s-0.037-0.281-0.112-0.404c-0.072-0.125-0.171-0.224-0.296-0.296-0.123-0.075-0.257-0.112-0.404-0.112s-0.281 0.037-0.404 0.112c-0.123 0.072-0.221 0.171-0.296 0.296-0.075 0.123-0.112 0.257-0.112 0.404s0.037 0.281 0.112 0.404c0.075 0.123 0.173 0.221 0.296 0.296s0.257 0.112 0.404 0.112z"></path>
</symbol>
<symbol id="icon-dot" viewBox="0 0 32 32">
<path d="M32 16c0 8.837-7.163 16-16 16s-16-7.163-16-16c0-8.837 7.163-16 16-16s16 7.163 16 16z"></path>
</symbol>
<symbol id="icon-hero-star" viewBox="0 0 32 32">
<path d="M14.941 0.98c0.364-0.983 1.755-0.983 2.118 0l3.59 9.703c0.114 0.309 0.358 0.553 0.667 0.667l9.703 3.59c0.983 0.364 0.983 1.755 0 2.118l-9.703 3.59c-0.309 0.114-0.553 0.358-0.667 0.667l-3.59 9.703c-0.364 0.983-1.755 0.983-2.118 0l-3.59-9.703c-0.114-0.309-0.358-0.553-0.667-0.667l-9.703-3.59c-0.983-0.364-0.983-1.755 0-2.118l9.703-3.59c0.309-0.114 0.553-0.358 0.667-0.667l3.59-9.703z"></path>
</symbol>
  </defs>
</svg>
